<mxfile host="74673b8f-8d1c-4d32-b5ba-83e071c748c3" modified="2020-07-15T04:45:23.861Z" agent="5.0 (Macintosh; Intel Mac OS X 10_15_5) AppleWebKit/537.36 (KHTML, like Gecko) Code/1.47.0 Chrome/78.0.3904.130 Electron/7.3.2 Safari/537.36" etag="zsgM9tzQH4jHGizegNPs" version="13.1.3">
    <diagram id="6hGFLwfOUW9BJ-s0fimq" name="Page-1">
        <mxGraphModel dx="919" dy="540" grid="1" gridSize="10" guides="1" tooltips="1" connect="1" arrows="1" fold="1" page="1" pageScale="1" pageWidth="827" pageHeight="1169" math="0" shadow="0">
            <root>
                <mxCell id="0"/>
                <mxCell id="1" parent="0"/>
                <mxCell id="22" value="&lt;br&gt;&lt;br&gt;&lt;br&gt;&lt;br&gt;&lt;br&gt;&lt;br&gt;CVM" style="rounded=1;whiteSpace=wrap;html=1;align=right;" vertex="1" parent="1">
                    <mxGeometry x="90" y="190" width="540" height="120" as="geometry"/>
                </mxCell>
                <mxCell id="4" value="&lt;br&gt;&lt;br&gt;&lt;br&gt;&lt;br&gt;PC" style="rounded=1;whiteSpace=wrap;html=1;align=right;" vertex="1" parent="1">
                    <mxGeometry x="240" y="60" width="220" height="100" as="geometry"/>
                </mxCell>
                <mxCell id="5" value="Microseg Service" style="rounded=1;whiteSpace=wrap;html=1;" vertex="1" parent="1">
                    <mxGeometry x="260" y="80" width="120" height="60" as="geometry"/>
                </mxCell>
                <mxCell id="6" value="&lt;br&gt;&lt;br&gt;&lt;br&gt;Acropolis&amp;nbsp;&lt;br&gt;Service" style="rounded=1;whiteSpace=wrap;html=1;align=right;" vertex="1" parent="1">
                    <mxGeometry x="113" y="200" width="425" height="100" as="geometry"/>
                </mxCell>
                <mxCell id="7" value="&lt;br&gt;&lt;br&gt;AHV" style="rounded=1;whiteSpace=wrap;html=1;align=right;" vertex="1" parent="1">
                    <mxGeometry x="253" y="345" width="300" height="60" as="geometry"/>
                </mxCell>
                <mxCell id="8" value="br.microseg" style="rounded=1;whiteSpace=wrap;html=1;" vertex="1" parent="1">
                    <mxGeometry x="316" y="356" width="180" height="40" as="geometry"/>
                </mxCell>
                <mxCell id="9" value="VM Events" style="rounded=1;whiteSpace=wrap;html=1;" vertex="1" parent="1">
                    <mxGeometry x="138" y="210" width="120" height="40" as="geometry"/>
                </mxCell>
                <mxCell id="10" value="VNIC Event" style="rounded=1;whiteSpace=wrap;html=1;" vertex="1" parent="1">
                    <mxGeometry x="138" y="255" width="120" height="40" as="geometry"/>
                </mxCell>
                <mxCell id="11" value="&lt;div&gt;Microseg Events&lt;/div&gt;" style="rounded=1;whiteSpace=wrap;html=1;align=center;" vertex="1" parent="1">
                    <mxGeometry x="358" y="220" width="120" height="70" as="geometry"/>
                </mxCell>
                <mxCell id="15" value="Policy Update&lt;br&gt;Create" style="endArrow=classic;html=1;entryX=0.356;entryY=0.003;entryDx=0;entryDy=0;entryPerimeter=0;exitX=0.664;exitY=1.019;exitDx=0;exitDy=0;exitPerimeter=0;" edge="1" parent="1" source="5" target="11">
                    <mxGeometry width="50" height="50" relative="1" as="geometry">
                        <mxPoint x="320" y="190" as="sourcePoint"/>
                        <mxPoint x="370" y="140" as="targetPoint"/>
                    </mxGeometry>
                </mxCell>
                <mxCell id="16" value="VM on/off" style="endArrow=classic;html=1;" edge="1" parent="1">
                    <mxGeometry width="50" height="50" relative="1" as="geometry">
                        <mxPoint x="258" y="235" as="sourcePoint"/>
                        <mxPoint x="358" y="235" as="targetPoint"/>
                    </mxGeometry>
                </mxCell>
                <mxCell id="18" value="Vnic add&lt;br&gt;update/del" style="endArrow=classic;html=1;" edge="1" parent="1" source="10">
                    <mxGeometry width="50" height="50" relative="1" as="geometry">
                        <mxPoint x="268" y="275" as="sourcePoint"/>
                        <mxPoint x="356" y="275" as="targetPoint"/>
                    </mxGeometry>
                </mxCell>
                <mxCell id="23" value="IDF" style="rounded=1;whiteSpace=wrap;html=1;" vertex="1" parent="1">
                    <mxGeometry x="560" y="200" width="50" height="80" as="geometry"/>
                </mxCell>
                <mxCell id="24" value="" style="endArrow=classic;html=1;" edge="1" parent="1">
                    <mxGeometry width="50" height="50" relative="1" as="geometry">
                        <mxPoint x="478" y="240" as="sourcePoint"/>
                        <mxPoint x="560" y="240" as="targetPoint"/>
                    </mxGeometry>
                </mxCell>
                <mxCell id="30" value="Default&lt;br&gt;Policy" style="endArrow=classic;html=1;" edge="1" parent="1">
                    <mxGeometry width="50" height="50" relative="1" as="geometry">
                        <mxPoint x="433" y="290" as="sourcePoint"/>
                        <mxPoint x="433" y="357" as="targetPoint"/>
                    </mxGeometry>
                </mxCell>
                <mxCell id="31" value="Actual&lt;br&gt;Policy" style="endArrow=classic;html=1;" edge="1" parent="1">
                    <mxGeometry width="50" height="50" relative="1" as="geometry">
                        <mxPoint x="380" y="290" as="sourcePoint"/>
                        <mxPoint x="380" y="353" as="targetPoint"/>
                    </mxGeometry>
                </mxCell>
            </root>
        </mxGraphModel>
    </diagram>
</mxfile>